<?xml version="1.0" encoding="utf-8"?>
<!-- Generator: Adobe Illustrator 24.1.1, SVG Export Plug-In . SVG Version: 6.00 Build 0)  -->
<svg version="1.1" id="Layer_1" xmlns="http://www.w3.org/2000/svg" xmlns:xlink="http://www.w3.org/1999/xlink" x="0px" y="0px"
	 viewBox="0 0 512 512" style="enable-background:new 0 0 512 512;" xml:space="preserve">
<g>
	<path d="M421.54,270.88c8.25-12.94,4.42-30.08-8.5-38.33l-0.72-0.44L130.11,60.55c-4.58-2.78-9.86-4.25-15.22-4.25
		c-15.92,0-28.8,12.61-28.8,28.17v343.04c0,5.28,1.5,10.42,4.36,14.89c8.42,13.19,26.17,17.22,39.67,9l282.21-171.52
		c3.72-2.28,6.92-5.39,9.25-9.03L421.54,270.88z M442.76,327.68L160.58,499.23c-40.53,24.67-93.86,12.5-119.08-27.05
		c-8.5-13.33-13.06-28.83-13.06-44.67V84.5C28.44,37.8,67.14,0,114.91,0c16.14,0,31.94,4.42,45.66,12.75l282.18,171.58
		c40.53,24.64,52.97,76.69,27.72,116.27C463.48,311.57,453.98,320.85,442.76,327.68z"/>
</g>
</svg>
